<mxfile host="app.diagrams.net" modified="2021-04-27T07:28:17.921Z" agent="5.0 (Windows NT 10.0; Win64; x64) AppleWebKit/537.36 (KHTML, like Gecko) Chrome/88.0.4324.182 Safari/537.36" etag="Bwr8jZYz-AoNMaT-jhww" version="14.6.6" type="github">
  <diagram id="C5RBs43oDa-KdzZeNtuy" name="Page-1">
    <mxGraphModel dx="2249" dy="794" grid="1" gridSize="10" guides="1" tooltips="1" connect="1" arrows="1" fold="1" page="1" pageScale="1" pageWidth="827" pageHeight="1169" math="0" shadow="0">
      <root>
        <mxCell id="WIyWlLk6GJQsqaUBKTNV-0" />
        <mxCell id="WIyWlLk6GJQsqaUBKTNV-1" parent="WIyWlLk6GJQsqaUBKTNV-0" />
        <mxCell id="WIyWlLk6GJQsqaUBKTNV-3" value="locak(): ReentrantLock加锁方法" style="rounded=1;whiteSpace=wrap;html=1;fontSize=14;glass=0;strokeWidth=1;shadow=0;fillColor=#f8cecc;strokeColor=#b85450;" parent="WIyWlLk6GJQsqaUBKTNV-1" vertex="1">
          <mxGeometry x="155" y="50" width="130" height="50" as="geometry" />
        </mxCell>
        <mxCell id="WIyWlLk6GJQsqaUBKTNV-4" value="Yes" style="rounded=0;html=1;jettySize=auto;orthogonalLoop=1;fontSize=11;endArrow=block;endFill=0;endSize=8;strokeWidth=1;shadow=0;labelBackgroundColor=none;edgeStyle=orthogonalEdgeStyle;" parent="WIyWlLk6GJQsqaUBKTNV-1" source="WIyWlLk6GJQsqaUBKTNV-6" target="WIyWlLk6GJQsqaUBKTNV-10" edge="1">
          <mxGeometry y="20" relative="1" as="geometry">
            <mxPoint as="offset" />
          </mxGeometry>
        </mxCell>
        <mxCell id="WIyWlLk6GJQsqaUBKTNV-6" value="当前锁是否自由态(state=0表示自由态)" style="rhombus;whiteSpace=wrap;html=1;shadow=0;fontFamily=Helvetica;fontSize=13;align=center;strokeWidth=1;spacing=6;spacingTop=-4;fillColor=#dae8fc;strokeColor=#6c8ebf;" parent="WIyWlLk6GJQsqaUBKTNV-1" vertex="1">
          <mxGeometry x="-40" y="560" width="140" height="80" as="geometry" />
        </mxCell>
        <mxCell id="WIyWlLk6GJQsqaUBKTNV-8" value="No" style="rounded=0;html=1;jettySize=auto;orthogonalLoop=1;fontSize=11;endArrow=block;endFill=0;endSize=8;strokeWidth=1;shadow=0;labelBackgroundColor=none;edgeStyle=orthogonalEdgeStyle;exitX=0;exitY=0.5;exitDx=0;exitDy=0;" parent="WIyWlLk6GJQsqaUBKTNV-1" source="WIyWlLk6GJQsqaUBKTNV-10" target="WIyWlLk6GJQsqaUBKTNV-11" edge="1">
          <mxGeometry x="0.3333" y="20" relative="1" as="geometry">
            <mxPoint as="offset" />
            <mxPoint x="-100" y="720" as="sourcePoint" />
          </mxGeometry>
        </mxCell>
        <mxCell id="WIyWlLk6GJQsqaUBKTNV-9" value="Yes" style="edgeStyle=orthogonalEdgeStyle;rounded=0;html=1;jettySize=auto;orthogonalLoop=1;fontSize=11;endArrow=block;endFill=0;endSize=8;strokeWidth=1;shadow=0;labelBackgroundColor=none;entryX=0.5;entryY=0;entryDx=0;entryDy=0;" parent="WIyWlLk6GJQsqaUBKTNV-1" source="WIyWlLk6GJQsqaUBKTNV-10" target="wI134FwoUZfQ0vSvFCqH-27" edge="1">
          <mxGeometry y="10" relative="1" as="geometry">
            <mxPoint as="offset" />
            <mxPoint x="30" y="800" as="targetPoint" />
          </mxGeometry>
        </mxCell>
        <mxCell id="WIyWlLk6GJQsqaUBKTNV-10" value="判断是否需要排队&lt;br&gt;hasQueuedPredecessors()" style="rhombus;whiteSpace=wrap;html=1;shadow=0;fontFamily=Helvetica;fontSize=12;align=center;strokeWidth=1;spacing=6;spacingTop=-4;fillColor=#d5e8d4;strokeColor=#82b366;" parent="WIyWlLk6GJQsqaUBKTNV-1" vertex="1">
          <mxGeometry x="-70" y="680" width="200" height="80" as="geometry" />
        </mxCell>
        <mxCell id="wI134FwoUZfQ0vSvFCqH-29" style="edgeStyle=orthogonalEdgeStyle;rounded=0;orthogonalLoop=1;jettySize=auto;html=1;exitX=0.5;exitY=1;exitDx=0;exitDy=0;entryX=0.5;entryY=0;entryDx=0;entryDy=0;fontSize=12;" edge="1" parent="WIyWlLk6GJQsqaUBKTNV-1" source="WIyWlLk6GJQsqaUBKTNV-11" target="wI134FwoUZfQ0vSvFCqH-26">
          <mxGeometry relative="1" as="geometry" />
        </mxCell>
        <mxCell id="WIyWlLk6GJQsqaUBKTNV-11" value="不需要排队则直接CAS&lt;br style=&quot;font-size: 12px;&quot;&gt;compareAndSetState(0, acquires))" style="rounded=1;whiteSpace=wrap;html=1;fontSize=12;glass=0;strokeWidth=1;shadow=0;fillColor=#f8cecc;strokeColor=#b85450;" parent="WIyWlLk6GJQsqaUBKTNV-1" vertex="1">
          <mxGeometry x="-310" y="800" width="200" height="40" as="geometry" />
        </mxCell>
        <mxCell id="wI134FwoUZfQ0vSvFCqH-0" value="sync.lock()" style="rounded=1;whiteSpace=wrap;html=1;fontSize=14;glass=0;strokeWidth=1;shadow=0;fillColor=#f8cecc;strokeColor=#b85450;" vertex="1" parent="WIyWlLk6GJQsqaUBKTNV-1">
          <mxGeometry x="155" y="140" width="130" height="40" as="geometry" />
        </mxCell>
        <mxCell id="wI134FwoUZfQ0vSvFCqH-1" value="" style="rounded=0;html=1;jettySize=auto;orthogonalLoop=1;fontSize=11;endArrow=none;endFill=0;endSize=8;strokeWidth=1;shadow=0;labelBackgroundColor=none;edgeStyle=orthogonalEdgeStyle;" edge="1" parent="WIyWlLk6GJQsqaUBKTNV-1" source="WIyWlLk6GJQsqaUBKTNV-3" target="wI134FwoUZfQ0vSvFCqH-0">
          <mxGeometry relative="1" as="geometry">
            <mxPoint x="220" y="90" as="sourcePoint" />
            <mxPoint x="220" y="170" as="targetPoint" />
          </mxGeometry>
        </mxCell>
        <mxCell id="wI134FwoUZfQ0vSvFCqH-6" style="edgeStyle=orthogonalEdgeStyle;rounded=0;orthogonalLoop=1;jettySize=auto;html=1;exitX=0;exitY=0.5;exitDx=0;exitDy=0;fontSize=15;entryX=0.5;entryY=0;entryDx=0;entryDy=0;" edge="1" parent="WIyWlLk6GJQsqaUBKTNV-1" source="wI134FwoUZfQ0vSvFCqH-4" target="wI134FwoUZfQ0vSvFCqH-9">
          <mxGeometry relative="1" as="geometry">
            <mxPoint x="30" y="340" as="targetPoint" />
          </mxGeometry>
        </mxCell>
        <mxCell id="wI134FwoUZfQ0vSvFCqH-11" style="edgeStyle=orthogonalEdgeStyle;rounded=0;orthogonalLoop=1;jettySize=auto;html=1;exitX=1;exitY=0.5;exitDx=0;exitDy=0;fontSize=15;" edge="1" parent="WIyWlLk6GJQsqaUBKTNV-1" source="wI134FwoUZfQ0vSvFCqH-4" target="wI134FwoUZfQ0vSvFCqH-10">
          <mxGeometry relative="1" as="geometry" />
        </mxCell>
        <mxCell id="wI134FwoUZfQ0vSvFCqH-4" value="&lt;span&gt;abstract void lock();&lt;/span&gt;" style="rhombus;whiteSpace=wrap;html=1;fontSize=15;fillColor=#dae8fc;strokeColor=#6c8ebf;" vertex="1" parent="WIyWlLk6GJQsqaUBKTNV-1">
          <mxGeometry x="140" y="230" width="160" height="80" as="geometry" />
        </mxCell>
        <mxCell id="wI134FwoUZfQ0vSvFCqH-5" value="" style="rounded=0;html=1;jettySize=auto;orthogonalLoop=1;fontSize=11;endArrow=none;endFill=0;endSize=8;strokeWidth=1;shadow=0;labelBackgroundColor=none;edgeStyle=orthogonalEdgeStyle;startArrow=none;" edge="1" parent="WIyWlLk6GJQsqaUBKTNV-1" source="wI134FwoUZfQ0vSvFCqH-0" target="wI134FwoUZfQ0vSvFCqH-4">
          <mxGeometry relative="1" as="geometry">
            <mxPoint x="220" y="180" as="sourcePoint" />
            <mxPoint x="220" y="380" as="targetPoint" />
          </mxGeometry>
        </mxCell>
        <mxCell id="wI134FwoUZfQ0vSvFCqH-8" value="FairSync in &lt;br&gt;ReentrantLock&lt;br&gt;公平锁" style="text;html=1;strokeColor=none;fillColor=none;align=center;verticalAlign=middle;whiteSpace=wrap;rounded=0;fontSize=15;" vertex="1" parent="WIyWlLk6GJQsqaUBKTNV-1">
          <mxGeometry x="-60" y="230" width="180" height="20" as="geometry" />
        </mxCell>
        <mxCell id="wI134FwoUZfQ0vSvFCqH-16" style="edgeStyle=orthogonalEdgeStyle;rounded=0;orthogonalLoop=1;jettySize=auto;html=1;exitX=0.5;exitY=1;exitDx=0;exitDy=0;fontSize=15;" edge="1" parent="WIyWlLk6GJQsqaUBKTNV-1" source="wI134FwoUZfQ0vSvFCqH-9" target="wI134FwoUZfQ0vSvFCqH-14">
          <mxGeometry relative="1" as="geometry" />
        </mxCell>
        <mxCell id="wI134FwoUZfQ0vSvFCqH-9" value="FairSync#lock" style="rounded=1;whiteSpace=wrap;html=1;fontSize=14;glass=0;strokeWidth=1;shadow=0;fillColor=#f8cecc;strokeColor=#b85450;" vertex="1" parent="WIyWlLk6GJQsqaUBKTNV-1">
          <mxGeometry x="-30" y="320" width="120" height="40" as="geometry" />
        </mxCell>
        <mxCell id="wI134FwoUZfQ0vSvFCqH-10" value="Plug in lamp" style="rounded=1;whiteSpace=wrap;html=1;fontSize=12;glass=0;strokeWidth=1;shadow=0;" vertex="1" parent="WIyWlLk6GJQsqaUBKTNV-1">
          <mxGeometry x="330" y="350" width="120" height="40" as="geometry" />
        </mxCell>
        <mxCell id="wI134FwoUZfQ0vSvFCqH-12" value="NonFairSync in ReentrantLock&lt;br&gt;非公平锁" style="text;html=1;strokeColor=none;fillColor=none;align=center;verticalAlign=middle;whiteSpace=wrap;rounded=0;fontSize=15;" vertex="1" parent="WIyWlLk6GJQsqaUBKTNV-1">
          <mxGeometry x="340" y="230" width="110" height="20" as="geometry" />
        </mxCell>
        <mxCell id="wI134FwoUZfQ0vSvFCqH-18" style="edgeStyle=orthogonalEdgeStyle;rounded=0;orthogonalLoop=1;jettySize=auto;html=1;exitX=0.5;exitY=1;exitDx=0;exitDy=0;entryX=0.5;entryY=0;entryDx=0;entryDy=0;fontSize=15;" edge="1" parent="WIyWlLk6GJQsqaUBKTNV-1" source="wI134FwoUZfQ0vSvFCqH-14" target="wI134FwoUZfQ0vSvFCqH-17">
          <mxGeometry relative="1" as="geometry" />
        </mxCell>
        <mxCell id="wI134FwoUZfQ0vSvFCqH-14" value="acquire(1)" style="rounded=1;whiteSpace=wrap;html=1;fontSize=15;fillColor=#f8cecc;strokeColor=#b85450;" vertex="1" parent="WIyWlLk6GJQsqaUBKTNV-1">
          <mxGeometry x="-30" y="390" width="120" height="40" as="geometry" />
        </mxCell>
        <mxCell id="wI134FwoUZfQ0vSvFCqH-21" style="edgeStyle=orthogonalEdgeStyle;rounded=0;orthogonalLoop=1;jettySize=auto;html=1;exitX=0.5;exitY=1;exitDx=0;exitDy=0;entryX=0.5;entryY=0;entryDx=0;entryDy=0;fontSize=15;" edge="1" parent="WIyWlLk6GJQsqaUBKTNV-1" source="wI134FwoUZfQ0vSvFCqH-17" target="WIyWlLk6GJQsqaUBKTNV-6">
          <mxGeometry relative="1" as="geometry" />
        </mxCell>
        <mxCell id="wI134FwoUZfQ0vSvFCqH-17" value="tryAcquire(1)" style="rounded=1;whiteSpace=wrap;html=1;fontSize=15;fillColor=#f8cecc;strokeColor=#b85450;" vertex="1" parent="WIyWlLk6GJQsqaUBKTNV-1">
          <mxGeometry x="-30" y="460" width="120" height="60" as="geometry" />
        </mxCell>
        <mxCell id="wI134FwoUZfQ0vSvFCqH-19" value="尝试获得锁" style="text;html=1;strokeColor=none;fillColor=none;align=center;verticalAlign=middle;whiteSpace=wrap;rounded=0;fontSize=15;" vertex="1" parent="WIyWlLk6GJQsqaUBKTNV-1">
          <mxGeometry x="-140" y="480" width="120" height="20" as="geometry" />
        </mxCell>
        <mxCell id="wI134FwoUZfQ0vSvFCqH-24" value="No" style="rounded=0;html=1;jettySize=auto;orthogonalLoop=1;fontSize=11;endArrow=block;endFill=0;endSize=8;strokeWidth=1;shadow=0;labelBackgroundColor=none;edgeStyle=orthogonalEdgeStyle;" edge="1" parent="WIyWlLk6GJQsqaUBKTNV-1" source="wI134FwoUZfQ0vSvFCqH-26" target="wI134FwoUZfQ0vSvFCqH-27">
          <mxGeometry x="0.3333" y="20" relative="1" as="geometry">
            <mxPoint as="offset" />
          </mxGeometry>
        </mxCell>
        <mxCell id="wI134FwoUZfQ0vSvFCqH-25" value="Yes" style="edgeStyle=orthogonalEdgeStyle;rounded=0;html=1;jettySize=auto;orthogonalLoop=1;fontSize=11;endArrow=block;endFill=0;endSize=8;strokeWidth=1;shadow=0;labelBackgroundColor=none;" edge="1" parent="WIyWlLk6GJQsqaUBKTNV-1" source="wI134FwoUZfQ0vSvFCqH-26" target="wI134FwoUZfQ0vSvFCqH-28">
          <mxGeometry y="10" relative="1" as="geometry">
            <mxPoint as="offset" />
          </mxGeometry>
        </mxCell>
        <mxCell id="wI134FwoUZfQ0vSvFCqH-26" value="CAS执行成功, 获取到锁" style="rhombus;whiteSpace=wrap;html=1;shadow=0;fontFamily=Helvetica;fontSize=12;align=center;strokeWidth=1;spacing=6;spacingTop=-4;fillColor=#d5e8d4;strokeColor=#82b366;" vertex="1" parent="WIyWlLk6GJQsqaUBKTNV-1">
          <mxGeometry x="-310" y="880" width="200" height="80" as="geometry" />
        </mxCell>
        <mxCell id="wI134FwoUZfQ0vSvFCqH-27" value="未获取到锁" style="rounded=1;whiteSpace=wrap;html=1;fontSize=12;glass=0;strokeWidth=1;shadow=0;fillColor=#f8cecc;strokeColor=#b85450;" vertex="1" parent="WIyWlLk6GJQsqaUBKTNV-1">
          <mxGeometry x="-70" y="900" width="200" height="40" as="geometry" />
        </mxCell>
        <mxCell id="wI134FwoUZfQ0vSvFCqH-28" value="设置当前线程为拥有锁的线程，方面后面判断是不是重入（只需把这个线程拿出来判断是否当前线程即可判断重入）" style="rounded=1;whiteSpace=wrap;html=1;fontSize=12;glass=0;strokeWidth=1;shadow=0;fillColor=#f8cecc;strokeColor=#b85450;" vertex="1" parent="WIyWlLk6GJQsqaUBKTNV-1">
          <mxGeometry x="-330" y="1030" width="240" height="40" as="geometry" />
        </mxCell>
      </root>
    </mxGraphModel>
  </diagram>
</mxfile>
